<?xml version="1.0" standalone="no"?>
<!DOCTYPE svg PUBLIC "-//W3C//DTD SVG 20010904//EN"
 "http://www.w3.org/TR/2001/REC-SVG-20010904/DTD/svg10.dtd">
<svg version="1.0" xmlns="http://www.w3.org/2000/svg"
 width="512.000000pt" height="512.000000pt" viewBox="0 0 512.000000 512.000000"
 preserveAspectRatio="xMidYMid meet">
<metadata>
Created by potrace 1.14, written by Peter Selinger 2001-2017
</metadata>
<g transform="translate(0.000000,512.000000) scale(0.100000,-0.100000)"
fill="#000000" stroke="none">
<path d="M375 5101 c-98 -29 -156 -62 -221 -126 -74 -75 -110 -137 -136 -235
-45 -171 6 -356 132 -479 162 -157 399 -194 589 -91 46 25 57 28 70 17 9 -8
75 -63 146 -123 72 -60 135 -113 141 -119 6 -5 33 -28 60 -50 45 -37 123 -104
134 -115 3 -3 75 -63 160 -134 85 -71 162 -137 171 -145 9 -9 36 -32 60 -51
68 -55 144 -123 144 -129 -1 -3 -15 -35 -32 -71 -71 -144 -101 -291 -96 -460
1 -58 9 -131 17 -163 l14 -58 -42 -23 c-75 -43 -370 -212 -416 -238 -25 -14
-85 -49 -134 -76 l-89 -51 -51 46 c-111 99 -231 146 -376 147 -104 1 -154 -5
-215 -27 -58 -21 -118 -50 -133 -64 -7 -7 -18 -13 -23 -13 -5 0 -38 -29 -74
-65 -115 -117 -177 -279 -169 -446 7 -164 63 -297 170 -403 105 -105 247 -165
405 -171 206 -7 382 81 508 255 84 115 126 295 102 427 l-8 42 56 34 c31 19
74 44 96 56 53 28 114 63 329 188 98 56 182 103 185 103 3 0 17 -17 31 -37 38
-57 169 -184 231 -225 75 -50 181 -104 236 -120 l45 -13 -7 -195 c-18 -499
-26 -673 -31 -682 -3 -4 -12 -8 -20 -8 -8 0 -43 -14 -77 -30 -237 -118 -346
-384 -261 -637 29 -84 55 -126 123 -193 101 -100 217 -147 365 -148 297 -1
526 240 511 538 -4 78 -9 104 -36 171 -41 106 -138 210 -246 266 -32 17 -57
34 -56 39 1 5 4 81 8 169 3 88 8 192 10 230 2 39 7 151 10 250 4 104 11 183
17 186 6 4 27 7 47 8 20 0 47 3 61 6 14 2 39 7 55 11 217 42 435 182 575 369
29 39 54 71 55 73 2 2 38 -13 82 -34 43 -20 114 -53 158 -74 44 -21 148 -70
230 -109 83 -40 171 -82 196 -94 l47 -22 0 -72 c1 -233 178 -430 410 -456 66
-7 189 18 259 54 180 91 275 306 226 513 -72 310 -449 447 -710 257 l-43 -31
-102 49 c-218 102 -268 126 -437 207 -95 46 -177 84 -182 84 -17 0 -18 19 -5
96 34 216 -21 481 -137 652 l-29 44 23 26 c13 15 32 33 42 40 10 8 161 136
335 286 175 149 324 277 333 284 13 10 24 8 61 -13 215 -120 495 -80 686 99
112 105 172 240 177 401 6 168 -50 315 -164 431 -112 114 -249 174 -406 178
-175 5 -319 -54 -438 -178 -164 -171 -211 -407 -127 -629 11 -28 20 -53 20
-54 0 -1 -62 -55 -137 -120 -76 -65 -140 -120 -143 -123 -3 -3 -66 -57 -140
-120 -74 -63 -146 -125 -160 -136 -14 -12 -56 -49 -95 -83 -38 -33 -73 -61
-77 -61 -4 0 -31 15 -60 34 -106 67 -227 114 -352 137 -149 27 -363 8 -511
-46 -83 -30 -201 -96 -255 -142 -21 -18 -41 -33 -45 -33 -4 0 -38 25 -74 56
-36 31 -75 63 -86 72 -43 36 -210 177 -215 182 -3 3 -45 39 -95 80 -49 41 -92
77 -95 80 -3 3 -32 28 -65 55 -33 28 -62 52 -65 55 -10 11 -267 227 -308 260
-33 26 -42 39 -37 55 3 11 8 29 11 40 3 11 8 58 10 105 9 232 -147 442 -377
505 -65 18 -184 16 -254 -4z m203 -297 c133 -55 172 -215 79 -321 -55 -63
-136 -85 -215 -59 -140 47 -184 217 -84 332 49 57 148 79 220 48z m4077 -19
c57 -27 103 -73 137 -138 34 -65 32 -174 -5 -249 -90 -183 -340 -216 -476 -62
-95 108 -95 270 1 379 88 100 222 128 343 70z m-1832 -1309 c168 -40 329 -155
410 -295 35 -59 72 -149 82 -198 10 -51 22 -168 19 -188 -1 -11 -5 -43 -8 -70
-21 -194 -173 -404 -356 -493 -110 -54 -194 -75 -305 -75 -423 -1 -741 386
-656 798 49 240 183 400 416 495 35 14 57 20 94 26 20 3 38 8 40 10 6 6 233
-2 264 -10z m-2099 -1425 c130 -57 200 -213 159 -356 -36 -122 -141 -203 -272
-210 -284 -13 -420 350 -199 528 82 66 212 81 312 38z m4015 0 c36 -20 73 -79
78 -126 12 -106 -99 -195 -201 -160 -49 17 -75 41 -96 89 -47 102 40 223 152
212 25 -2 55 -9 67 -15z m-2140 -1354 c60 -40 93 -97 96 -170 15 -259 -354
-315 -423 -64 -17 62 2 143 45 194 66 77 198 95 282 40z"/>
</g>
</svg>
